<svg xmlns="http://www.w3.org/2000/svg" viewBox="0 0 722.83 266.66"><defs><style>.cls-1{fill:#00479d;}.cls-2{fill:#094;}.cls-3{fill:#00a0e9;}.cls-4{fill:#920783;}.cls-5{fill:#e60012;}.cls-6{fill:#e4007f;}.cls-7{fill:#fff;}.cls-8{fill:#fabe00;}.cls-9{fill:#fff100;}.cls-10{fill:#231815;}</style></defs><title>アセット 3</title><g id="レイヤー_2" data-name="レイヤー 2"><g id="レイヤー_1-2" data-name="レイヤー 1"><polygon class="cls-1" points="313.94 85.19 360.17 102.22 406.39 85.19 360.17 68.15 313.94 85.19"/><polygon class="cls-2" points="406.39 51.11 452.62 34.07 406.39 17.04 360.17 34.07 406.39 51.11"/><polygon class="cls-3" points="452.62 68.15 498.84 51.11 452.62 34.07 406.39 51.11 452.62 68.15"/><polygon class="cls-4" points="360.17 68.15 406.39 85.19 452.62 68.15 406.39 51.11 360.17 68.15"/><polygon class="cls-4" points="406.39 17.04 360.17 0 313.94 17.04 360.17 34.07 406.39 17.04"/><polygon class="cls-5" points="498.84 85.19 545.06 68.15 498.84 51.11 452.62 68.15 498.84 85.19"/><polygon class="cls-6" points="406.39 51.11 360.17 34.07 313.94 51.11 360.17 68.15 406.39 51.11"/><polygon class="cls-7" points="313.94 51.11 267.72 68.15 313.94 85.19 360.17 68.15 313.94 51.11"/><polygon class="cls-8" points="360.17 102.22 406.39 119.26 452.62 102.22 406.39 85.19 360.17 102.22"/><polygon class="cls-3" points="313.94 119.26 360.17 136.3 406.39 119.26 360.17 102.22 313.94 119.26"/><polygon class="cls-9" points="452.62 68.15 406.39 85.19 452.62 102.22 498.84 85.19 452.62 68.15"/><polygon class="cls-5" points="313.94 85.19 267.72 102.22 313.94 119.26 360.17 102.22 313.94 85.19"/><polygon class="cls-9" points="313.94 51.11 267.72 34.07 221.49 51.11 267.72 68.15 313.94 51.11"/><polygon class="cls-1" points="360.17 34.07 313.94 17.04 267.72 34.07 313.94 51.11 360.17 34.07"/><polygon class="cls-2" points="267.72 68.15 221.49 85.19 267.72 102.22 313.94 85.19 267.72 68.15"/><polygon class="cls-6" points="221.49 51.11 175.27 68.15 221.49 85.19 267.72 68.15 221.49 51.11"/><polygon class="cls-10" points="433.25 180.03 416.85 207.53 400.46 180.03 386.55 180.03 386.55 265.85 402.01 265.85 402.01 211.33 416.85 236.22 431.69 211.33 431.69 265.85 447.16 265.85 447.16 180.03 433.25 180.03"/><path class="cls-10" d="M35,181A25.21,25.21,0,0,0,0,204.2v37.25a25.21,25.21,0,0,0,50.42,0V204.2A25.21,25.21,0,0,0,35,181Zm-9.74,70a9.76,9.76,0,0,1-9.74-9.27V204A9.75,9.75,0,0,1,35,204v37.73A9.76,9.76,0,0,1,25.21,251Z"/><path class="cls-10" d="M349.3,181a25.21,25.21,0,0,0-34.95,23.25v37.25a25.21,25.21,0,0,0,50.42,0V204.2A25.21,25.21,0,0,0,349.3,181Zm-9.74,70a9.76,9.76,0,0,1-9.74-9.27V204a9.75,9.75,0,0,1,19.48,0v37.73A9.76,9.76,0,0,1,339.56,251Z"/><path class="cls-10" d="M518.06,195.5A25.21,25.21,0,0,0,494.8,180H470.41v85.82h15.47v-35.4h8.92a25.23,25.23,0,0,0,23.26-34.95Zm-23,19.48h-9.17V195.5h9.17a9.75,9.75,0,0,1,0,19.48Z"/><polygon class="cls-10" points="107.14 180.03 107.14 225.36 88.34 180.03 72.19 180.03 72.19 265.85 87.67 265.85 87.67 221.82 105.93 265.85 122.61 265.85 122.61 180.03 107.14 180.03"/><polygon class="cls-10" points="195.77 195.61 195.77 180.03 145.81 180.03 145.81 265.85 195.77 265.85 195.77 250.27 161.28 250.27 161.28 230.73 185.46 230.73 185.46 215.15 161.28 215.15 161.28 195.61 195.77 195.61"/><path class="cls-10" d="M586.06,204.2a25.21,25.21,0,0,0-50.42,0v61.65h15.47V239.5h19.48v26.35h15.47ZM551.11,204a9.75,9.75,0,0,1,19.48,0v19.95H551.11Z"/><polygon class="cls-10" points="656.78 180.03 601.67 180.03 601.67 195.61 621.49 195.61 621.49 265.85 636.96 265.85 636.96 195.61 656.78 195.61 656.78 180.03"/><polygon class="cls-10" points="707.37 180.03 707.37 215.15 687.88 215.15 687.88 180.03 672.42 180.03 672.42 265.85 687.88 265.85 687.88 230.73 707.37 230.73 707.37 265.85 722.84 265.85 722.84 180.03 707.37 180.03"/><path class="cls-10" d="M277.1,241.69a9.75,9.75,0,0,1-19.48,0V204a9.75,9.75,0,0,1,19.48,0V214h15.47V204.2a25.21,25.21,0,0,0-50.42,0v37.25a25.21,25.21,0,0,0,50.42,0v-9.59H277.1Z"/></g></g></svg>